<?xml version="1.0" encoding="UTF-8"?>
<svg id="Layer_1" data-name="Layer 1" xmlns="http://www.w3.org/2000/svg" viewBox="0 0 471.96 421.89">
  <defs>
    <style>
      .cls-1, .cls-2, .cls-3, .cls-4 {
        stroke-width: 0px;
      }

      .cls-2 {
        fill: #ffa100;
      }

      .cls-3 {
        isolation: isolate;
        opacity: .13;
      }

      .cls-4 {
        fill: #ff424c;
      }
    </style>
  </defs>
  <path class="cls-1" d="M463.83,81.32c-2.09-7.21-4.66-14.49-7.15-21.55l-1.38-3.94-.59.21c-2.18.78-4.38,1.55-6.58,2.32-3.05,1.06-5.59,1.92-8,2.7-.81.26-1.61.53-2.42.81-15.55,5.42-29.85,14.34-43.75,27.26-4.51,4.19-8.79,8.58-12.86,13.17-3.67,4.12-7.16,8.38-10.45,12.79-12.59,16.99-22.48,35.82-29.32,55.82-.15.42-.31.83-.48,1.22-1.27,3.02-3.78,5.33-6.89,6.36l-.23.07c-3.21,1.06-6.56,2.2-10.25,3.49l-3.09,1.08c-2.12.74-4.39,1.55-6.95,2.47l-2.37.84c-2.8.89-5.52,1.98-8.17,3.26-8.3,4.28-13.78,11.51-17.19,22.77-2.77,9.12-3.83,18.54-4.92,28.54-.08.71-.16,1.41-.24,2.13l14.28-4.95c6.75-2.35,15.64-5.46,24.6-8.62h.07c.93-.33,1.89-.55,2.86-.68,2.46-.3,4.95.15,7.15,1.27l.41.21c21.28,10.34,43.3,21.05,65.01,31.37,3.83,1.68,6.93,4.69,8.72,8.47.38.78.71,1.59.98,2.41,3.8,11.34,7.69,22.44,11.81,34.17.31.89.62,1.76.92,2.65,3.67-3.72,7.16-7.29,10.51-11.02,4.34-4.68,8.32-9.69,11.89-14.99,6.67-10.32,7.87-20.73,3.54-31.86-1.77-4.61-3.38-9.31-4.92-13.84-1.13-3.32-2.31-6.76-3.52-10.08-1.04-2.68-1.04-5.65,0-8.32.35-.92.8-1.81,1.34-2.64,10.94-17.07,19.29-35.67,24.77-55.18,2.55-9.14,4.43-18.45,5.63-27.87,2.51-20.42,1.65-37.04-2.77-52.3ZM432.75,159.93c-2.93,3.69-6.83,6.5-11.27,8.1l-.29.1c-4.22,1.48-8.75,1.8-13.14.93-2.21-.43-4.35-1.15-6.37-2.14-11.21-5.33-16.93-17.99-13.52-29.92,1.11-3.92,3.13-7.53,5.9-10.52,2.82-3.03,6.33-5.33,10.24-6.69h.05c13.35-4.62,27.92,2.45,32.55,15.81,2.87,8.3,1.29,17.49-4.2,24.35l.03-.02Z"/>
  <path class="cls-2" d="M432.75,159.93c-2.93,3.69-6.83,6.5-11.27,8.1l-.29.1c-4.22,1.48-8.75,1.8-13.14.93-2.21-.43-4.35-1.15-6.37-2.14-11.21-5.33-16.93-17.99-13.52-29.92,1.11-3.92,3.13-7.53,5.9-10.52,2.82-3.03,6.33-5.33,10.24-6.69h.05c13.35-4.62,27.92,2.45,32.55,15.81,2.87,8.3,1.29,17.49-4.2,24.35l.03-.02Z"/>
  <path class="cls-4" d="M403.64,270.17c-2.45,8.12-5.41,16.07-8.86,23.82-2.52,5.67-5.28,11.19-8.29,16.56-36.04,64.6-104.24,104.63-178.21,104.6h-3.94C91.58,413.04,1.88,319.91,4,207.14,5.54,125.07,56.06,51.9,132.26,21.39c77.16-30.92,165.37-11.95,222.99,47.96,2.74,2.85,5.4,5.78,7.97,8.77-5.78,6.15-11.2,12.62-16.25,19.38-12.72,17.13-23.03,35.92-30.65,55.84l-2.59.9-4.07,1.43c-4.96-9.05-11.1-17.4-18.26-24.83-21.2-22.14-50.38-34.88-81.03-35.37h-2.22c-62.49,0-114.3,50.85-115.48,113.36-1.12,63.83,49.73,116.49,113.56,117.6,43.98.77,84.59-23.49,104.76-62.59,5.67-10.96,9.52-22.77,11.39-34.97,2.46-.3,4.95.15,7.15,1.27l.41.21c21.28,10.34,43.3,21.05,65.01,31.37,3.82,1.69,6.9,4.7,8.68,8.47Z"/>
  <path class="cls-3" d="M403.64,270.17c-2.45,8.12-5.41,16.07-8.86,23.82-2.52,5.67-5.28,11.19-8.29,16.56-2.87-8.18-5.63-16.12-8.35-24.17-18.53-8.86-37.18-17.88-55.35-26.72l-11.81,4.13c5.67-10.96,9.52-22.76,11.39-34.95,2.46-.3,4.95.15,7.15,1.27l.41.21c21.28,10.34,43.3,21.05,65.01,31.37,3.82,1.69,6.9,4.7,8.68,8.47Z"/>
</svg>